<svg xmlns="http://www.w3.org/2000/svg" width="40" height="40" viewBox="0 0 40 40"><defs><style>.a{fill:#fff;}</style></defs><path class="a" d="M27.582,100,38.953,88.628a3.575,3.575,0,0,0,0-5.055l-2.527-2.527a3.575,3.575,0,0,0-5.055,0L20,92.418,8.628,81.047a3.575,3.575,0,0,0-5.055,0L1.047,83.574a3.575,3.575,0,0,0,0,5.055L12.418,100,1.047,111.372a3.575,3.575,0,0,0,0,5.055l2.527,2.527a3.575,3.575,0,0,0,5.055,0L20,107.582l11.372,11.372a3.575,3.575,0,0,0,5.055,0l2.527-2.527a3.575,3.575,0,0,0,0-5.055Z" transform="translate(0 -80)"/></svg>